<?xml version="1.0" encoding="UTF-8"?><svg id="Layer_2" xmlns="http://www.w3.org/2000/svg" xmlns:xlink="http://www.w3.org/1999/xlink" viewBox="0 0 680.4 679.6"><defs><style>.cls-1{fill:#00c172;}.cls-2{opacity:.6;}.cls-3{fill:url(#radial-gradient);}</style><radialGradient id="radial-gradient" cx="-4394.37" cy="-3135.15" fx="-4394.37" fy="-3135.15" r="553.03" gradientTransform="translate(2975.66 2219.86) scale(.6)" gradientUnits="userSpaceOnUse"><stop offset=".31" stop-color="#fff" stop-opacity="0"/><stop offset=".61" stop-color="#020202" stop-opacity=".05"/><stop offset="1" stop-color="#000" stop-opacity=".4"/></radialGradient></defs><g id="Layer_1-2"><g><g><g id="Shape_2" class="cls-2"><path d="M181.44,657.04c-38.03-19.14-63.43-56.13-85.38-92.61-25.34-42.09-48.37-85.57-68.97-130.18C13.36,404.51,.51,373.32,.01,340.57c-.52-34.51,12.73-67.64,27.17-98.99,29.5-64.02,64.96-125.29,105.78-182.76C164.41,14.53,225.16,4.36,279.41,1.58c43.24-2.21,86.59-2.1,129.82,.35,30.12,1.7,60.98,4.76,87.99,18.19,38.69,19.24,64.31,57,86.46,94.1,24.95,41.8,47.8,84.85,68.41,128.95,11.69,25.01,22.8,50.86,25.63,78.32,4.71,45.82-14.01,90.58-34.39,131.89-21.7,43.98-45.74,86.8-71.98,128.23-17.21,27.15-36.27,54.58-63.93,70.95-27.39,16.21-60.25,19.82-92.02,21.87-47.27,3.05-94.71,3.44-142.02,1.19-31.47-1.5-63.79-4.41-91.93-18.58"/></g><g id="Shape_2-2"><path class="cls-1" d="M184.7,650.97c-37.2-18.76-62.04-55.02-83.52-90.77-24.79-41.26-47.32-83.88-67.46-127.6-13.43-29.15-26-59.73-26.48-91.83-.51-33.83,12.45-66.3,26.58-97.03,28.86-62.75,63.54-122.81,103.47-179.14C168.04,21.19,227.46,11.22,280.52,8.5c42.29-2.17,84.7-2.06,126.98,.34,29.46,1.67,59.65,4.66,86.07,17.83,37.85,18.86,62.91,55.87,84.58,92.24,24.41,40.97,46.75,83.17,66.92,126.4,11.43,24.51,22.31,49.85,25.07,76.77,4.61,44.91-13.71,88.78-33.64,129.27-21.22,43.11-44.74,85.08-70.41,125.68-16.83,26.62-35.47,53.5-62.54,69.55-26.8,15.89-58.94,19.43-90.01,21.44-46.24,2.99-92.64,3.38-138.92,1.17-30.78-1.47-62.4-4.33-89.93-18.21"/></g><g id="Shape_2-3"><path d="M334.9,679.6c-19.58,0-39.15-.46-58.6-1.39-29.72-1.42-63.94-4.2-94.08-19.36h0c-18.41-9.26-35.18-22.91-51.26-41.73-14.64-17.13-26.72-36.22-36.6-52.64-24.52-40.72-47.05-83.26-66.97-126.41C14.44,410.02,.58,377.18,.06,342.27c-.56-37.36,13.86-71.88,27.42-101.31,28.65-62.18,63.28-122.01,102.92-177.83,15.45-21.76,38.8-37.84,69.4-47.79,22.43-7.3,48.56-11.5,82.25-13.22C323.92-.03,366.39,.09,408.26,2.46c28.38,1.61,61.09,4.53,90.1,18.95,41.65,20.71,67.78,60.36,88.99,95.89,24.12,40.4,46.46,82.5,66.38,125.12,11.47,24.53,22.92,50.91,25.89,79.84,4.84,47.04-13.69,92.45-34.44,134.5-20.98,42.53-44.49,84.42-69.88,124.48-16.5,26.04-36.58,55.28-66.23,72.83-29.52,17.47-64.4,21.02-94.78,22.98-26.33,1.7-52.88,2.55-79.4,2.55Zm-139.73-46.49c25.09,12.63,55.74,15.04,82.5,16.32,44.74,2.13,90.08,1.75,134.78-1.13,28.29-1.82,57.92-4.79,81.96-19.02,24.15-14.29,41.19-39.19,56.57-63.45,24.84-39.2,47.85-80.18,68.38-121.81,8.6-17.43,18.25-38.12,24.67-59.48,6.54-21.75,8.81-41.16,6.94-59.33-2.52-24.46-12.91-48.29-23.33-70.59-19.52-41.75-41.39-82.98-65.02-122.55-19.12-32.02-42.42-67.62-77.08-84.86-24.12-11.99-53.38-14.54-78.9-15.98-40.84-2.31-82.26-2.42-123.12-.33-31.09,1.59-54.86,5.36-74.81,11.85-24.93,8.11-42.86,20.24-54.82,37.08-38.61,54.37-72.34,112.64-100.24,173.21-12.23,26.55-25.25,57.49-24.77,88.82,.44,29.27,12.43,57.62,24.68,84.15,19.48,42.21,41.52,83.8,65.49,123.63,18.88,31.36,41.89,66.27,76.13,83.5Z"/></g><g id="Shape_2-4"><path class="cls-3" d="M184.7,650.97c-37.2-18.76-62.04-55.02-83.52-90.77-24.79-41.26-47.32-83.88-67.46-127.6-13.43-29.15-26-59.73-26.48-91.83-.51-33.83,12.45-66.3,26.58-97.03,28.86-62.75,63.54-122.81,103.47-179.14C168.04,21.19,227.46,11.22,280.52,8.5c42.29-2.17,84.7-2.06,126.98,.34,29.46,1.67,59.65,4.66,86.07,17.83,37.85,18.86,62.91,55.87,84.58,92.24,24.41,40.97,46.75,83.17,66.92,126.4,11.43,24.51,22.31,49.85,25.07,76.77,4.61,44.91-13.71,88.78-33.64,129.27-21.22,43.11-44.74,85.08-70.41,125.68-16.83,26.62-35.47,53.5-62.54,69.55-26.8,15.89-58.94,19.43-90.01,21.44-46.24,2.99-92.64,3.38-138.92,1.17-30.78-1.47-62.4-4.33-89.93-18.21"/></g></g><g><g><path d="M393,261.23c21.18,0,38.4,17.22,38.4,38.4s-17.22,38.4-38.4,38.4-38.4-17.22-38.4-38.4,17.22-38.4,38.4-38.4Zm0,57.6c10.6,0,19.2-8.62,19.2-19.2s-8.6-19.2-19.2-19.2-19.2,8.62-19.2,19.2,8.6,19.2,19.2,19.2Z"/><path d="M277.8,270.83c15.88,0,28.8,12.92,28.8,28.8s-12.92,28.8-28.8,28.8-28.8-12.92-28.8-28.8,12.92-28.8,28.8-28.8Zm0,38.4c5.28,0,9.6-4.3,9.6-9.6s-4.32-9.6-9.6-9.6-9.6,4.3-9.6,9.6,4.32,9.6,9.6,9.6Z"/></g><path d="M283.59,388.68h113.23c6.25,0,11.32,6.65,11.32,14.84s-5.07,14.84-11.32,14.84h-113.23c-6.25,0-11.32-6.65-11.32-14.84s5.07-14.84,11.32-14.84Z"/></g></g></g></svg>