<?xml version="1.0" encoding="UTF-8"?><svg id="Layer_2" xmlns="http://www.w3.org/2000/svg" viewBox="0 0 1154.38 1152"><defs><style>.cls-1{fill:#ed4a67;}.cls-2{fill:#ffba03;}.cls-3{fill:#ff9601;}.cls-4{fill:#333;}.cls-5{opacity:.6;}</style></defs><g id="Layer_1-2"><g><g id="Shape_2" class="cls-5"><path d="M385.01,963.93c-46.32-23.31-77.25-68.37-103.99-112.79-30.86-51.27-58.92-104.22-83.99-158.55-16.72-36.22-32.37-74.21-32.97-114.1-.63-42.03,15.5-82.38,33.09-120.56,35.93-77.97,79.12-152.6,128.83-222.59,38.3-53.94,112.29-66.33,178.36-69.71,52.66-2.7,105.46-2.56,158.11,.42,36.68,2.08,74.27,5.8,107.17,22.15,47.12,23.43,78.33,69.43,105.31,114.61,30.39,50.9,58.21,103.34,83.32,157.05,14.24,30.46,27.77,61.95,31.22,95.39,5.74,55.8-17.07,110.32-41.89,160.63-26.42,53.56-55.7,105.72-87.67,156.17-20.96,33.07-44.17,66.48-77.86,86.42-33.36,19.75-73.38,24.14-112.07,26.63-57.57,3.71-115.35,4.19-172.97,1.45-38.33-1.83-77.69-5.38-111.97-22.62"/></g><g id="Shape_2-2"><path class="cls-4" d="M308.71,1117.95c-64.71-32.56-107.92-95.51-145.28-157.57-43.12-71.62-82.31-145.6-117.34-221.51C22.73,688.27,.86,635.2,.03,579.47c-.88-58.72,21.66-115.09,46.23-168.43,50.2-108.93,110.53-213.18,179.98-310.97C279.75,24.72,383.1,7.41,475.4,2.68c73.57-3.77,147.33-3.57,220.88,.59,51.24,2.9,103.76,8.1,149.71,30.95,65.83,32.74,109.43,96.99,147.12,160.12,42.46,71.12,81.33,144.38,116.4,219.41,19.89,42.55,38.8,86.54,43.61,133.26,8.02,77.96-23.84,154.12-58.51,224.4-36.92,74.83-77.82,147.69-122.48,218.18-29.28,46.2-61.71,92.87-108.78,120.73-46.61,27.59-102.52,33.73-156.57,37.21-80.43,5.18-161.14,5.86-241.65,2.02-53.54-2.55-108.54-7.51-156.43-31.61"/></g><g id="Shape_2-3"><path class="cls-1" d="M320.96,1093.24c-61.76-31.07-103-91.15-138.66-150.38-41.15-68.36-78.56-138.97-111.99-211.41-22.29-48.29-43.16-98.95-43.97-152.13-.84-56.04,20.67-109.84,44.12-160.75,47.91-103.96,105.49-203.46,171.77-296.79,51.07-71.92,149.72-88.44,237.81-92.95,70.21-3.6,140.62-3.41,210.81,.56,48.91,2.77,99.03,7.73,142.89,29.54,62.83,31.24,104.44,92.57,140.41,152.82,40.52,67.87,77.62,137.79,111.1,209.4,18.98,40.61,37.03,82.59,41.62,127.18,7.66,74.4-22.76,147.09-55.85,214.17-35.23,71.42-74.27,140.96-116.9,208.23-27.94,44.1-58.89,88.63-103.82,115.22-44.49,26.33-97.84,32.19-149.43,35.51-76.76,4.95-153.8,5.59-230.63,1.93-51.1-2.43-103.59-7.17-149.29-30.16"/></g><g id="Shape_2-4"><path class="cls-3" d="M352.98,1028.58c-54.04-27.19-90.13-79.76-121.32-131.59-36.01-59.81-68.74-121.59-97.99-184.98-19.5-42.26-37.77-86.58-38.47-133.11-.74-49.04,18.08-96.11,38.61-140.65,41.92-90.97,92.31-178.03,150.3-259.69,44.69-62.93,131-77.38,208.08-81.33,61.44-3.15,123.04-2.98,184.46,.49,42.79,2.42,86.65,6.76,125.03,25.85,54.98,27.34,91.38,81,122.86,133.72,35.46,59.39,67.92,120.57,97.21,183.23,16.61,35.53,32.4,72.27,36.42,111.29,6.7,65.1-19.91,128.71-48.87,187.4-30.83,62.49-64.99,123.34-102.28,182.2-24.45,38.58-51.53,77.56-90.84,100.82-38.93,23.04-85.61,28.16-130.75,31.07-67.16,4.33-134.57,4.89-201.8,1.69-44.71-2.13-90.64-6.27-130.63-26.39"/></g><g id="Shape_2-5"><path class="cls-2" d="M387.84,958.22c-45.64-22.96-76.11-67.36-102.46-111.13-30.41-50.51-58.05-102.69-82.76-156.22-16.47-35.69-31.9-73.12-32.49-112.42-.62-41.41,15.27-81.17,32.61-118.78,35.4-76.82,77.96-150.35,126.93-219.32,37.74-53.14,110.63-65.35,175.73-68.69,51.88-2.66,103.91-2.52,155.78,.42,36.14,2.05,73.18,5.71,105.59,21.83,46.43,23.09,77.18,68.4,103.76,112.93,29.95,50.16,57.36,101.82,82.1,154.74,14.03,30.01,27.36,61.03,30.76,93.98,5.66,54.98-16.82,108.69-41.27,158.26-26.03,52.78-54.88,104.16-86.38,153.87-20.65,32.59-43.52,65.5-76.72,85.15-32.87,19.46-72.3,23.79-110.42,26.24-56.72,3.66-113.65,4.13-170.42,1.43-37.76-1.8-76.55-5.3-110.32-22.29"/></g><g><path class="cls-4" d="M407.45,637.99c-3.74,0-6.89-1.18-9.45-3.54-2.56-2.36-3.84-5.31-3.84-8.86v-98.89c0-3.74,1.28-6.79,3.84-9.15,2.56-2.36,5.71-3.54,9.45-3.54,3.93,0,7.13,1.18,9.59,3.54,2.46,2.36,3.69,5.42,3.69,9.15v28.34c0,3.94,1.96,5.9,5.91,5.9h39.85c3.93,0,5.9-1.96,5.9-5.9v-28.34c0-3.74,1.23-6.79,3.69-9.15,2.46-2.36,5.66-3.54,9.59-3.54s7.13,1.18,9.59,3.54c2.46,2.36,3.69,5.42,3.69,9.15v98.89c0,3.74-1.23,6.74-3.69,9-2.46,2.26-5.66,3.4-9.59,3.4s-6.89-1.13-9.45-3.4c-2.56-2.26-3.84-5.26-3.84-9v-34.54c0-3.93-1.97-5.91-5.9-5.91h-39.85c-3.94,0-5.91,1.97-5.91,5.91v34.54c0,3.74-1.23,6.74-3.69,9-2.46,2.26-5.66,3.4-9.59,3.4Z"/><path class="cls-4" d="M544.72,635.04c-5.71,0-10.33-1.77-13.87-5.31-3.54-3.54-5.31-8.16-5.31-13.87v-82.07c0-5.7,1.67-10.18,5.02-13.43,3.34-3.25,7.77-4.87,13.28-4.87h44.58c8.27,0,12.4,3.94,12.4,11.81,0,3.35-1.18,6.15-3.54,8.41-2.36,2.26-5.31,3.39-8.86,3.39h-30.41c-3.94,0-5.91,1.97-5.91,5.91v11.81c0,3.94,1.96,5.9,5.91,5.9h25.98c3.93,0,6.98,1.08,9.15,3.25,2.16,2.17,3.25,5.02,3.25,8.56,0,3.15-1.23,5.9-3.69,8.27-2.46,2.36-5.36,3.54-8.71,3.54h-25.98c-3.94,0-5.91,1.97-5.91,5.91v12.99c0,3.94,1.96,5.9,5.91,5.9h33.36c3.74,0,6.74,1.08,9,3.25,2.26,2.17,3.4,5.12,3.4,8.86,0,3.35-1.18,6.15-3.54,8.41-2.36,2.27-5.31,3.4-8.86,3.4h-46.64Z"/><path class="cls-4" d="M628.55,637.99c-3.74,0-7.08-1.33-10.04-3.99s-4.43-5.76-4.43-9.3c0-2.75,.78-5.21,2.36-7.38l28.93-36.31c1.37-1.57,2.07-3.54,2.07-5.91,0-2.16-.79-4.33-2.36-6.49l-27.45-33.65c-1.38-2.16-2.07-4.62-2.07-7.38,0-3.54,1.37-6.69,4.13-9.45,2.75-2.75,6-4.13,9.74-4.13,3.93,0,6.98,1.58,9.15,4.72l22.44,31.29c1.57,1.77,2.95,2.66,4.13,2.66,1.57,0,2.95-.89,4.13-2.66l22.14-31.29c2.16-3.15,5.21-4.72,9.15-4.72,3.74,0,6.98,1.38,9.74,4.13,2.75,2.76,4.13,5.9,4.13,9.45,0,2.76-.69,5.22-2.07,7.38l-27.45,33.65c-1.58,2.17-2.36,4.33-2.36,6.49,0,2.36,.69,4.33,2.07,5.91l28.93,36.31c1.57,2.17,2.36,4.63,2.36,7.38,0,3.54-1.43,6.64-4.28,9.3-2.85,2.66-6.25,3.99-10.18,3.99s-6.99-1.58-9.15-4.72l-23.03-32.47c-1.38-1.77-2.76-2.66-4.13-2.66-1.58,0-2.95,.89-4.13,2.66l-23.32,32.47c-2.17,3.15-5.22,4.72-9.15,4.72Z"/><path class="cls-4" d="M746.93,637.99c-3.74,0-6.89-1.18-9.45-3.54-2.56-2.36-3.84-5.31-3.84-8.86v-98.89c0-3.74,1.28-6.79,3.84-9.15,2.55-2.36,5.7-3.54,9.45-3.54,3.93,0,7.13,1.18,9.59,3.54,2.46,2.36,3.69,5.42,3.69,9.15v98.89c0,3.74-1.23,6.74-3.69,9-2.46,2.26-5.66,3.4-9.59,3.4Z"/></g><path class="cls-1" d="M571.89,915.8c-19.58,0-39.15-.46-58.6-1.39-29.72-1.42-63.94-4.2-94.08-19.36h0c-18.41-9.26-35.18-22.91-51.26-41.73-14.64-17.13-26.72-36.22-36.6-52.64-24.52-40.72-47.05-83.26-66.97-126.41-12.94-28.04-26.8-60.89-27.32-95.79-.56-37.36,13.86-71.88,27.42-101.31,28.65-62.18,63.28-122.01,102.92-177.83,15.45-21.76,38.8-37.84,69.4-47.79,22.43-7.3,48.56-11.5,82.25-13.22,41.88-2.14,84.35-2.03,126.22,.34,28.38,1.61,61.09,4.53,90.1,18.95,41.65,20.71,67.78,60.36,88.99,95.89,24.12,40.4,46.46,82.5,66.38,125.12,11.47,24.53,22.92,50.91,25.89,79.84,4.84,47.04-13.69,92.45-34.44,134.5-20.98,42.53-44.49,84.42-69.88,124.48-16.5,26.04-36.58,55.28-66.23,72.83-29.52,17.47-64.4,21.02-94.78,22.98-26.33,1.7-52.88,2.55-79.4,2.55Zm-139.73-46.49c25.09,12.63,55.74,15.04,82.5,16.32,44.74,2.13,90.08,1.75,134.78-1.13,28.29-1.82,57.92-4.79,81.96-19.02,24.15-14.29,41.19-39.19,56.57-63.45,24.84-39.2,47.85-80.18,68.38-121.81,8.6-17.43,18.25-38.12,24.67-59.48,6.54-21.75,8.81-41.16,6.94-59.33-2.52-24.46-12.91-48.29-23.33-70.59-19.52-41.75-41.39-82.98-65.02-122.55-19.12-32.02-42.42-67.62-77.08-84.86-24.12-11.99-53.38-14.54-78.9-15.98-40.84-2.31-82.26-2.42-123.12-.33-31.09,1.59-54.86,5.36-74.81,11.85-24.93,8.11-42.86,20.24-54.82,37.08-38.61,54.37-72.34,112.64-100.24,173.21-12.23,26.55-25.25,57.49-24.77,88.82,.44,29.27,12.43,57.62,24.68,84.15,19.48,42.21,41.52,83.8,65.49,123.63,18.88,31.36,41.89,66.27,76.13,83.5Z"/></g></g></svg>