<?xml version="1.0" encoding="UTF-8"?><svg id="Layer_2" xmlns="http://www.w3.org/2000/svg" viewBox="0 0 362.23 122.69"><defs><style>.cls-1{fill:#ffba03;}</style></defs><g id="Layer_1-2"><g><path class="cls-1" d="M13.15,122.69c-3.7,0-6.82-1.17-9.35-3.5-2.53-2.34-3.8-5.26-3.8-8.76V12.56C0,8.86,1.26,5.84,3.8,3.5,6.33,1.17,9.44,0,13.15,0c3.89,0,7.06,1.17,9.49,3.5,2.43,2.34,3.65,5.36,3.65,9.06v28.04c0,3.9,1.94,5.84,5.84,5.84h39.44c3.89,0,5.84-1.94,5.84-5.84V12.56c0-3.7,1.21-6.72,3.65-9.06,2.43-2.34,5.6-3.5,9.49-3.5s7.06,1.17,9.49,3.5c2.43,2.34,3.65,5.36,3.65,9.06V110.42c0,3.7-1.22,6.67-3.65,8.91-2.44,2.24-5.6,3.36-9.49,3.36s-6.82-1.12-9.35-3.36c-2.53-2.24-3.8-5.21-3.8-8.91v-34.18c0-3.89-1.95-5.84-5.84-5.84H32.13c-3.9,0-5.84,1.95-5.84,5.84v34.18c0,3.7-1.22,6.67-3.65,8.91-2.44,2.24-5.6,3.36-9.49,3.36Z"/><path class="cls-1" d="M148.98,119.77c-5.65,0-10.22-1.75-13.73-5.26-3.51-3.5-5.26-8.08-5.26-13.73V19.57c0-5.65,1.65-10.08,4.97-13.29,3.31-3.21,7.69-4.82,13.15-4.82h44.11c8.18,0,12.27,3.9,12.27,11.69,0,3.31-1.17,6.09-3.51,8.33-2.34,2.24-5.26,3.36-8.76,3.36h-30.09c-3.9,0-5.84,1.95-5.84,5.84v11.68c0,3.9,1.94,5.84,5.84,5.84h25.71c3.89,0,6.91,1.07,9.06,3.21,2.14,2.15,3.21,4.97,3.21,8.47,0,3.12-1.22,5.84-3.65,8.18-2.44,2.34-5.31,3.5-8.62,3.5h-25.71c-3.9,0-5.84,1.95-5.84,5.84v12.85c0,3.9,1.94,5.84,5.84,5.84h33.01c3.7,0,6.67,1.07,8.91,3.21,2.24,2.15,3.36,5.07,3.36,8.76,0,3.31-1.17,6.09-3.51,8.33-2.34,2.24-5.26,3.36-8.76,3.36h-46.16Z"/><path class="cls-1" d="M231.94,122.69c-3.7,0-7.01-1.32-9.93-3.94s-4.38-5.7-4.38-9.2c0-2.72,.78-5.16,2.34-7.3l28.63-35.93c1.36-1.56,2.04-3.51,2.04-5.84,0-2.14-.78-4.28-2.34-6.43l-27.17-33.3c-1.37-2.14-2.04-4.57-2.04-7.3,0-3.5,1.36-6.62,4.09-9.35,2.72-2.73,5.94-4.09,9.64-4.09,3.89,0,6.91,1.56,9.06,4.67l22.2,30.97c1.56,1.75,2.92,2.63,4.09,2.63,1.56,0,2.92-.88,4.09-2.63l21.91-30.97c2.14-3.11,5.16-4.67,9.06-4.67,3.7,0,6.91,1.36,9.64,4.09,2.72,2.73,4.09,5.84,4.09,9.35,0,2.73-.69,5.16-2.04,7.3l-27.17,33.3c-1.56,2.14-2.34,4.28-2.34,6.43,0,2.34,.68,4.29,2.04,5.84l28.63,35.93c1.56,2.15,2.34,4.58,2.34,7.3,0,3.51-1.41,6.57-4.24,9.2-2.83,2.63-6.18,3.94-10.08,3.94s-6.91-1.56-9.06-4.67l-22.79-32.13c-1.36-1.75-2.73-2.63-4.09-2.63-1.56,0-2.92,.88-4.09,2.63l-23.08,32.13c-2.15,3.11-5.16,4.67-9.06,4.67Z"/><path class="cls-1" d="M349.08,122.69c-3.7,0-6.82-1.17-9.35-3.5-2.53-2.34-3.8-5.26-3.8-8.76V12.56c0-3.7,1.26-6.72,3.8-9.06,2.53-2.34,5.65-3.5,9.35-3.5,3.89,0,7.06,1.17,9.49,3.5,2.43,2.34,3.65,5.36,3.65,9.06V110.42c0,3.7-1.22,6.67-3.65,8.91-2.44,2.24-5.6,3.36-9.49,3.36Z"/></g></g></svg>